# Blender v2.79 (sub 0) OBJ File: 'h2o_plant.blend'
# www.blender.org
mtllib h2o_plant.mtl
o Sphere
v -0.000000 11.194510 -2.947395
v -0.000000 7.074117 -5.105039
v -0.000001 11.598621 -0.000000
v 2.084122 11.194510 -2.084123
v 3.609807 10.090453 -3.609808
v 4.168246 8.582285 -4.168247
v 3.609806 7.074117 -3.609807
v 2.084123 5.970061 -2.084124
v 2.947394 11.194510 -0.000001
v 5.105038 10.090453 -0.000001
v 5.894789 8.582285 -0.000001
v 5.105037 7.074117 -0.000001
v 2.947394 5.970061 -0.000001
v 2.084122 11.194510 2.084122
v 3.609807 10.090453 3.609806
v 4.168245 8.582285 4.168244
v 3.609806 7.074117 3.609805
v 2.084122 5.970061 2.084122
v -0.000000 5.565948 -0.000001
v -0.000000 11.194510 2.947393
v 0.000000 10.090453 5.105036
v 0.000000 8.582285 5.894788
v 0.000000 7.074117 5.105036
v -0.000000 5.970061 2.947393
v -2.084123 11.194510 2.084121
v -3.609806 10.090453 3.609806
v -4.168245 8.582285 4.168244
v -3.609806 7.074117 3.609805
v -2.084122 5.970061 2.084122
v -2.947394 11.194510 -0.000001
v -5.105037 10.090453 -0.000001
v -5.894789 8.582285 -0.000001
v -5.105037 7.074117 -0.000001
v -2.947394 5.970061 -0.000001
v -2.084122 11.194510 -2.084124
v -3.609806 10.090453 -3.609807
v -4.168245 8.582285 -4.168246
v -3.609806 7.074117 -3.609807
v -2.084122 5.970061 -2.084123
v -0.000000 10.090453 -5.105038
v 0.000000 8.582285 -5.894790
v -0.000000 5.970061 -2.947395
v -0.000000 8.396430 -5.652414
v -0.000000 -0.009157 -5.652414
v -0.000000 -0.040524 -1.835632
v -0.000000 5.705216 -1.835632
v 1.589705 -0.040524 -0.917816
v 1.589705 5.705216 -0.917816
v 1.589704 -0.040524 0.917816
v 1.589704 5.705216 0.917816
v -0.000000 -0.040524 1.835633
v -0.000000 5.705216 1.835633
v -1.589704 -0.040524 0.917816
v -1.589704 5.705216 0.917816
v -1.589704 -0.040524 -0.917816
v -1.589704 5.705216 -0.917816
v 0.511066 -0.009157 -5.357350
v 0.511066 8.396430 -5.357350
v 0.511066 -0.009157 -4.767222
v 0.511066 8.396430 -4.767222
v -0.000000 -0.009157 -4.472157
v -0.000000 8.396430 -4.472157
v -0.511066 -0.009157 -4.767222
v -0.511066 8.396430 -4.767222
v -0.511066 -0.009157 -5.357350
v -0.511066 8.396430 -5.357350
v 3.575061 8.396430 -4.165189
v 3.575061 -0.009157 -4.165189
v 4.086127 -0.009157 -3.870125
v 4.086127 8.396430 -3.870125
v 4.086126 -0.009157 -3.279996
v 4.086126 8.396430 -3.279996
v 3.575060 -0.009157 -2.984932
v 3.575060 8.396430 -2.984932
v 3.063994 -0.009157 -3.279996
v 3.063994 8.396430 -3.279996
v 3.063994 -0.009157 -3.870125
v 3.063994 8.396430 -3.870125
v 5.062286 8.396430 -0.561528
v 5.062286 -0.009157 -0.561528
v 5.573352 -0.009157 -0.266463
v 5.573352 8.396430 -0.266463
v 5.573351 -0.009157 0.323665
v 5.573351 8.396430 0.323665
v 5.062285 -0.009157 0.618729
v 5.062285 8.396430 0.618729
v 4.551220 -0.009157 0.323665
v 4.551220 8.396430 0.323665
v 4.551220 -0.009157 -0.266463
v 4.551220 8.396430 -0.266463
v 3.603662 8.396430 3.013533
v 3.603662 -0.009157 3.013533
v 4.114727 -0.009157 3.308597
v 4.114727 8.396430 3.308597
v 4.114727 -0.009157 3.898725
v 4.114727 8.396430 3.898725
v 3.603661 -0.009157 4.193789
v 3.603661 8.396430 4.193789
v 3.092595 -0.009157 3.898725
v 3.092595 8.396430 3.898725
v 3.092595 -0.009157 3.308597
v 3.092595 8.396430 3.308597
v 0.000001 8.396430 4.472158
v 0.000001 -0.009157 4.472158
v 0.511067 -0.009157 4.767222
v 0.511067 8.396430 4.767222
v 0.511066 -0.009157 5.357350
v 0.511066 8.396430 5.357350
v 0.000000 -0.009157 5.652415
v 0.000000 8.396430 5.652415
v -0.511066 -0.009157 5.357350
v -0.511066 8.396430 5.357350
v -0.511066 -0.009157 4.767222
v -0.511066 8.396430 4.767222
v -3.575060 8.396430 3.042133
v -3.575060 -0.009157 3.042133
v -3.063994 -0.009157 3.337198
v -3.063994 8.396430 3.337198
v -3.063994 -0.009157 3.927326
v -3.063994 8.396430 3.927326
v -3.575061 -0.009157 4.222391
v -3.575061 8.396430 4.222391
v -4.086126 -0.009157 3.927326
v -4.086126 8.396430 3.927326
v -4.086126 -0.009157 3.337198
v -4.086126 8.396430 3.337198
v -5.062285 8.396430 -0.590129
v -5.062285 -0.009157 -0.590129
v -4.551219 -0.009157 -0.295064
v -4.551219 8.396430 -0.295064
v -4.551220 -0.009157 0.295064
v -4.551220 8.396430 0.295064
v -5.062286 -0.009157 0.590129
v -5.062286 8.396430 0.590129
v -5.573351 -0.009157 0.295064
v -5.573351 8.396430 0.295064
v -5.573351 -0.009157 -0.295064
v -5.573351 8.396430 -0.295064
v -3.575060 8.396430 -4.193789
v -3.575060 -0.009157 -4.193789
v -3.063994 -0.009157 -3.898725
v -3.063994 8.396430 -3.898725
v -3.063995 -0.009157 -3.308597
v -3.063995 8.396430 -3.308597
v -3.575061 -0.009157 -3.013533
v -3.575061 8.396430 -3.013533
v -4.086126 -0.009157 -3.308597
v -4.086126 8.396430 -3.308597
v -4.086126 -0.009157 -3.898725
v -4.086126 8.396430 -3.898725
vt 0.735888 0.274230
vt 0.735888 0.645104
vt 0.721113 0.645104
vt 0.721113 0.274230
vt 0.593293 0.104910
vt 0.578518 0.096379
vt 0.578518 0.079319
vt 0.593293 0.070789
vt 0.608068 0.079319
vt 0.608068 0.096379
vt 0.577499 0.009040
vt 0.562725 0.000509
vt 0.547950 0.009040
vt 0.547950 0.026100
vt 0.562725 0.034630
vt 0.577499 0.026100
vt 0.076421 0.516254
vt 0.076421 0.887128
vt 0.061646 0.887128
vt 0.061646 0.516254
vt 0.578518 0.131519
vt 0.593293 0.140049
vt 0.608068 0.131519
vt 0.608068 0.114459
vt 0.593293 0.105928
vt 0.578518 0.114459
vt 0.091196 0.516254
vt 0.091196 0.887128
vt 0.812818 0.274230
vt 0.812818 0.645104
vt 0.827593 0.645104
vt 0.827593 0.274230
vt 0.928192 0.645104
vt 0.928192 0.274230
vt 0.945253 0.274230
vt 0.945253 0.645104
vt 0.842367 0.645104
vt 0.842367 0.274230
vt 0.562725 0.035649
vt 0.577499 0.044179
vt 0.577499 0.061240
vt 0.562725 0.069770
vt 0.547950 0.061240
vt 0.547950 0.044179
vt 0.963332 0.645104
vt 0.963332 0.274230
vt 0.946272 0.274230
vt 0.946272 0.645104
vt 0.367164 0.608366
vt 0.413122 0.634899
vt 0.459080 0.608366
vt 0.459080 0.555298
vt 0.413122 0.528764
vt 0.367164 0.555298
vt 0.750663 0.274230
vt 0.750663 0.645104
vt 0.782250 0.274230
vt 0.782250 0.645104
vt 0.797024 0.645104
vt 0.797024 0.274230
vt 0.232564 0.887128
vt 0.232564 0.516254
vt 0.249625 0.516254
vt 0.249625 0.887128
vt 0.811799 0.645104
vt 0.811799 0.274230
vt 0.230893 0.887128
vt 0.230893 0.516254
vt 0.213832 0.516254
vt 0.213832 0.887128
vt 0.179959 0.516254
vt 0.179959 0.887128
vt 0.165184 0.887128
vt 0.165184 0.516254
vt 0.608068 0.061240
vt 0.608068 0.044179
vt 0.593293 0.035649
vt 0.578518 0.044179
vt 0.578518 0.061240
vt 0.593293 0.069770
vt 0.608068 0.149598
vt 0.608068 0.166659
vt 0.593293 0.175189
vt 0.578518 0.166659
vt 0.578518 0.149598
vt 0.593293 0.141068
vt 0.194734 0.516254
vt 0.194734 0.887128
vt 0.690545 0.274230
vt 0.690545 0.645104
vt 0.705319 0.645104
vt 0.705319 0.274230
vt 0.371384 0.905207
vt 0.000509 0.905207
vt 0.000509 0.888147
vt 0.371384 0.888147
vt 0.720094 0.645104
vt 0.720094 0.274230
vt 0.830973 0.900657
vt 0.460099 0.900657
vt 0.460099 0.917718
vt 0.830973 0.917718
vt 0.118823 0.516254
vt 0.118823 0.887128
vt 0.104048 0.887128
vt 0.104048 0.516254
vt 0.547950 0.201798
vt 0.562725 0.210329
vt 0.577499 0.201798
vt 0.577499 0.184738
vt 0.562725 0.176208
vt 0.547950 0.184738
vt 0.562725 0.175189
vt 0.547950 0.166659
vt 0.547950 0.149598
vt 0.562725 0.141068
vt 0.577499 0.149598
vt 0.577499 0.166659
vt 0.133597 0.516254
vt 0.133597 0.887128
vt 0.751681 0.274230
vt 0.751681 0.645104
vt 0.766456 0.645104
vt 0.766456 0.274230
vt 0.195753 0.887128
vt 0.195753 0.516254
vt 0.212813 0.516254
vt 0.212813 0.887128
vt 0.781231 0.645104
vt 0.781231 0.274230
vt 0.267704 0.887128
vt 0.267704 0.516254
vt 0.250644 0.516254
vt 0.250644 0.887128
vt 0.149391 0.516254
vt 0.149391 0.887128
vt 0.134616 0.887128
vt 0.134616 0.516254
vt 0.578518 0.026100
vt 0.593293 0.034630
vt 0.608068 0.026100
vt 0.608068 0.009040
vt 0.593293 0.000509
vt 0.578518 0.009040
vt 0.523521 0.598025
vt 0.508746 0.589494
vt 0.508746 0.572434
vt 0.523521 0.563904
vt 0.538296 0.572434
vt 0.538296 0.589494
vt 0.164166 0.516254
vt 0.164166 0.887128
vt 0.659976 0.274230
vt 0.659976 0.645104
vt 0.674751 0.645104
vt 0.674751 0.274230
vt 0.849052 0.899639
vt 0.478178 0.899639
vt 0.478178 0.882578
vt 0.849052 0.882578
vt 0.689526 0.645104
vt 0.689526 0.274230
vt 0.849052 0.864499
vt 0.478178 0.864499
vt 0.478178 0.881559
vt 0.849052 0.881559
vt 0.045852 0.516254
vt 0.045852 0.887128
vt 0.031078 0.887128
vt 0.031078 0.516254
vt 0.547950 0.131519
vt 0.562725 0.140049
vt 0.577499 0.131519
vt 0.577499 0.114459
vt 0.562725 0.105928
vt 0.547950 0.114459
vt 0.562725 0.104910
vt 0.547950 0.096379
vt 0.547950 0.079319
vt 0.562725 0.070789
vt 0.577499 0.079319
vt 0.577499 0.096379
vt 0.060627 0.516254
vt 0.060627 0.887128
vt 0.629408 0.274230
vt 0.629408 0.645104
vt 0.644183 0.645104
vt 0.644183 0.274230
vt 0.460099 0.899639
vt 0.460099 0.528764
vt 0.477159 0.528764
vt 0.477159 0.899639
vt 0.658958 0.645104
vt 0.658958 0.274230
vt 0.891015 0.645104
vt 0.891015 0.274230
vt 0.873955 0.274230
vt 0.873955 0.645104
vt 0.015284 0.516254
vt 0.015284 0.887128
vt 0.000509 0.887128
vt 0.000509 0.516254
vt 0.478178 0.589495
vt 0.492953 0.598025
vt 0.507727 0.589494
vt 0.507727 0.572434
vt 0.492953 0.563904
vt 0.478178 0.572434
vt 0.562725 0.245468
vt 0.547950 0.236938
vt 0.547950 0.219878
vt 0.562725 0.211347
vt 0.577499 0.219878
vt 0.577499 0.236938
vt 0.030059 0.516254
vt 0.030059 0.887128
vt 0.598840 0.274230
vt 0.598840 0.645104
vt 0.613614 0.645104
vt 0.613614 0.274230
vt 0.982430 0.645104
vt 0.982430 0.274230
vt 0.999491 0.274230
vt 0.999491 0.645104
vt 0.628389 0.645104
vt 0.628389 0.274230
vt 0.981411 0.645104
vt 0.981411 0.274230
vt 0.964351 0.274230
vt 0.964351 0.645104
vt 0.858161 0.274230
vt 0.858161 0.645104
vt 0.843386 0.645104
vt 0.843386 0.274230
vt 0.508746 0.554355
vt 0.523521 0.562885
vt 0.538296 0.554355
vt 0.538296 0.537294
vt 0.523521 0.528764
vt 0.508746 0.537295
vt 0.492953 0.562885
vt 0.478178 0.554355
vt 0.478178 0.537295
vt 0.492953 0.528764
vt 0.507727 0.537294
vt 0.507727 0.554355
vt 0.872936 0.274230
vt 0.872936 0.645104
vt 0.568271 0.274230
vt 0.568271 0.645104
vt 0.583046 0.645104
vt 0.583046 0.274230
vt 0.910113 0.645104
vt 0.910113 0.274230
vt 0.927174 0.274230
vt 0.927174 0.645104
vt 0.597821 0.645104
vt 0.597821 0.274230
vt 0.909094 0.645104
vt 0.909094 0.274230
vt 0.892034 0.274230
vt 0.892034 0.645104
vt 0.410580 0.136860
vt 0.331858 0.104252
vt 0.331858 0.169468
vt 0.133597 0.394732
vt 0.067053 0.394732
vt 0.067053 0.515235
vt 0.133597 0.499091
vt 0.080382 0.273211
vt 0.104252 0.215582
vt 0.169468 0.215582
vt 0.193338 0.273211
vt 0.274230 0.080382
vt 0.274230 0.193338
vt 0.000509 0.394732
vt 0.000509 0.499091
vt 0.136860 0.136860
vt 0.067053 0.394732
vt 0.133597 0.394732
vt 0.215582 0.169468
vt 0.273211 0.193338
vt 0.354102 0.273211
vt 0.377973 0.215582
vt 0.000509 0.394732
vt 0.215582 0.104252
vt 0.273211 0.080382
vt 0.467059 0.273211
vt 0.443188 0.215582
vt 0.000509 0.290374
vt 0.067053 0.274230
vt 0.133597 0.290374
vt 0.546931 0.193338
vt 0.489303 0.169468
vt 0.201160 0.515235
vt 0.134616 0.499091
vt 0.134616 0.394732
vt 0.201160 0.394732
vt 0.169468 0.058138
vt 0.267704 0.499091
vt 0.267704 0.394732
vt 0.193338 0.000509
vt 0.546931 0.080382
vt 0.489303 0.104252
vt 0.134616 0.290374
vt 0.201160 0.274230
vt 0.104252 0.058138
vt 0.267704 0.290374
vt 0.080382 0.000509
vt 0.467059 0.000509
vt 0.443188 0.058138
vt 0.134616 0.394732
vt 0.201160 0.394732
vt 0.058138 0.104252
vt 0.267704 0.394732
vt 0.000509 0.080382
vt 0.354102 0.000509
vt 0.377973 0.058138
vt 0.134616 0.499091
vt 0.201160 0.515235
vt 0.058138 0.169468
vt 0.267704 0.499091
vt 0.000509 0.193338
vt 0.067053 0.274230
vt 0.000509 0.290374
vt 0.133597 0.290374
vt 0.320188 0.274230
vt 0.320188 0.527745
vt 0.366145 0.527745
vt 0.366145 0.274230
vt 0.460099 0.527745
vt 0.460099 0.274230
vt 0.513166 0.274230
vt 0.513166 0.527745
vt 0.459080 0.274230
vt 0.459080 0.527745
vt 0.413122 0.527745
vt 0.413122 0.274230
vt 0.367164 0.527745
vt 0.367164 0.274230
vt 0.320188 0.634899
vt 0.274230 0.608366
vt 0.274230 0.555298
vt 0.320188 0.528764
vt 0.366145 0.555298
vt 0.366145 0.608366
vt 0.567253 0.527745
vt 0.567253 0.274230
vt 0.514185 0.274230
vt 0.514185 0.527745
vt 0.274230 0.274230
vt 0.274230 0.527745
vn -0.5000 0.0000 0.8660
vn 0.0000 1.0000 -0.0000
vn 0.0000 -1.0000 0.0000
vn 0.5000 0.0000 0.8660
vn -0.5000 0.0000 -0.8660
vn 1.0000 0.0000 0.0000
vn 0.5000 0.0000 -0.8660
vn -1.0000 0.0000 0.0000
vn 0.0000 -0.9415 -0.3370
vn 0.2383 -0.9415 -0.2383
vn 0.0000 -0.6750 -0.7378
vn 0.0000 0.0000 -1.0000
vn 0.7071 0.0000 -0.7071
vn 0.5217 -0.6750 -0.5217
vn 0.0000 0.6750 -0.7378
vn 0.0000 0.9415 -0.3370
vn 0.2383 0.9415 -0.2383
vn 0.5217 0.6750 -0.5217
vn 0.7378 -0.6750 0.0000
vn 0.3370 0.9415 0.0000
vn 0.7378 0.6750 0.0000
vn 0.3370 -0.9415 0.0000
vn 0.2383 0.9415 0.2383
vn 0.5217 0.6750 0.5217
vn 0.5217 -0.6750 0.5217
vn 0.2383 -0.9415 0.2383
vn 0.7071 0.0000 0.7071
vn 0.0000 -0.6750 0.7378
vn 0.0000 -0.9415 0.3370
vn 0.0000 0.6750 0.7378
vn 0.0000 0.0000 1.0000
vn 0.0000 0.9415 0.3370
vn -0.5217 -0.6750 0.5217
vn -0.2383 -0.9415 0.2383
vn -0.5217 0.6750 0.5217
vn -0.7071 0.0000 0.7071
vn -0.2383 0.9415 0.2383
vn -0.7378 -0.6750 0.0000
vn -0.3370 -0.9415 0.0000
vn -0.7378 0.6750 0.0000
vn -0.3370 0.9415 0.0000
vn -0.5217 -0.6750 -0.5217
vn -0.2383 -0.9415 -0.2383
vn -0.5217 0.6750 -0.5217
vn -0.7071 0.0000 -0.7071
vn -0.2383 0.9415 -0.2383
vn 0.0000 -0.6100 -0.7924
vn 0.0000 0.6100 -0.7924
vn 0.6862 0.6100 -0.3962
vn 0.6862 -0.6100 -0.3962
vn 0.6862 0.6100 0.3962
vn 0.6862 -0.6100 0.3962
vn 0.0000 0.6100 0.7924
vn 0.0000 -0.6100 0.7924
vn -0.6862 0.6100 0.3962
vn -0.6862 -0.6100 0.3962
vn -0.6862 0.6100 -0.3962
vn -0.6862 -0.6100 -0.3962
usemtl Material.001
s off
f 73/1/1 74/2/1 76/3/1 75/4/1
f 58/5/2 43/6/2 66/7/2 64/8/2 62/9/2 60/10/2
f 68/11/3 69/12/3 71/13/3 73/14/3 75/15/3 77/16/3
f 61/17/1 62/18/1 64/19/1 63/20/1
f 44/21/3 57/22/3 59/23/3 61/24/3 63/25/3 65/26/3
f 59/27/4 60/28/4 62/18/4 61/17/4
f 65/29/5 66/30/5 43/31/5 44/32/5
f 57/33/6 58/34/6 60/35/6 59/36/6
f 44/32/7 43/31/7 58/37/7 57/38/7
f 70/39/2 67/40/2 78/41/2 76/42/2 74/43/2 72/44/2
f 63/45/8 64/46/8 66/47/8 65/48/8
f 45/49/3 47/50/3 49/51/3 51/52/3 53/53/3 55/54/3
f 71/55/4 72/56/4 74/2/4 73/1/4
f 77/57/5 78/58/5 67/59/5 68/60/5
f 69/61/6 70/62/6 72/63/6 71/64/6
f 68/60/7 67/59/7 70/65/7 69/66/7
f 75/67/8 76/68/8 78/69/8 77/70/8
f 85/71/1 86/72/1 88/73/1 87/74/1
f 80/75/3 81/76/3 83/77/3 85/78/3 87/79/3 89/80/3
f 82/81/2 79/82/2 90/83/2 88/84/2 86/85/2 84/86/2
f 83/87/4 84/88/4 86/72/4 85/71/4
f 89/89/5 90/90/5 79/91/5 80/92/5
f 81/93/6 82/94/6 84/95/6 83/96/6
f 80/92/7 79/91/7 82/97/7 81/98/7
f 87/99/8 88/100/8 90/101/8 89/102/8
f 97/103/1 98/104/1 100/105/1 99/106/1
f 92/107/3 93/108/3 95/109/3 97/110/3 99/111/3 101/112/3
f 94/113/2 91/114/2 102/115/2 100/116/2 98/117/2 96/118/2
f 95/119/4 96/120/4 98/104/4 97/103/4
f 101/121/5 102/122/5 91/123/5 92/124/5
f 93/125/6 94/126/6 96/127/6 95/128/6
f 92/124/7 91/123/7 94/129/7 93/130/7
f 99/131/8 100/132/8 102/133/8 101/134/8
f 109/135/1 110/136/1 112/137/1 111/138/1
f 104/139/3 105/140/3 107/141/3 109/142/3 111/143/3 113/144/3
f 106/145/2 103/146/2 114/147/2 112/148/2 110/149/2 108/150/2
f 107/151/4 108/152/4 110/136/4 109/135/4
f 113/153/5 114/154/5 103/155/5 104/156/5
f 105/157/6 106/158/6 108/159/6 107/160/6
f 104/156/7 103/155/7 106/161/7 105/162/7
f 111/163/8 112/164/8 114/165/8 113/166/8
f 121/167/1 122/168/1 124/169/1 123/170/1
f 116/171/3 117/172/3 119/173/3 121/174/3 123/175/3 125/176/3
f 118/177/2 115/178/2 126/179/2 124/180/2 122/181/2 120/182/2
f 119/183/4 120/184/4 122/168/4 121/167/4
f 125/185/5 126/186/5 115/187/5 116/188/5
f 117/189/6 118/190/6 120/191/6 119/192/6
f 116/188/7 115/187/7 118/193/7 117/194/7
f 123/195/8 124/196/8 126/197/8 125/198/8
f 133/199/1 134/200/1 136/201/1 135/202/1
f 128/203/3 129/204/3 131/205/3 133/206/3 135/207/3 137/208/3
f 130/209/2 127/210/2 138/211/2 136/212/2 134/213/2 132/214/2
f 131/215/4 132/216/4 134/200/4 133/199/4
f 137/217/5 138/218/5 127/219/5 128/220/5
f 129/221/6 130/222/6 132/223/6 131/224/6
f 128/220/7 127/219/7 130/225/7 129/226/7
f 135/227/8 136/228/8 138/229/8 137/230/8
f 145/231/1 146/232/1 148/233/1 147/234/1
f 140/235/3 141/236/3 143/237/3 145/238/3 147/239/3 149/240/3
f 142/241/2 139/242/2 150/243/2 148/244/2 146/245/2 144/246/2
f 143/247/4 144/248/4 146/232/4 145/231/4
f 149/249/5 150/250/5 139/251/5 140/252/5
f 141/253/6 142/254/6 144/255/6 143/256/6
f 140/252/7 139/251/7 142/257/7 141/258/7
f 147/259/8 148/260/8 150/261/8 149/262/8
s 1
f 19/263/3 42/264/9 8/265/10
f 2/266/11 41/267/12 6/268/13 7/269/14
f 40/270/15 1/271/16 4/272/17 5/273/18
f 42/264/9 2/274/11 7/275/14 8/265/10
f 41/267/12 40/276/15 5/277/18 6/268/13
f 1/271/16 3/278/2 4/272/17
f 7/269/14 6/268/13 11/279/6 12/280/19
f 5/273/18 4/272/17 9/281/20 10/282/21
f 8/265/10 7/275/14 12/283/19 13/284/22
f 6/268/13 5/277/18 10/285/21 11/279/6
f 4/272/17 3/278/2 9/281/20
f 19/263/3 8/265/10 13/284/22
f 10/282/21 9/281/20 14/286/23 15/287/24
f 13/284/22 12/283/19 17/288/25 18/289/26
f 11/279/6 10/285/21 15/290/24 16/291/27
f 9/281/20 3/278/2 14/286/23
f 19/263/3 13/284/22 18/289/26
f 12/280/19 11/279/6 16/291/27 17/292/25
f 18/289/26 17/288/25 23/293/28 24/294/29
f 16/295/27 15/296/24 21/297/30 22/298/31
f 14/286/23 3/278/2 20/299/32
f 19/263/3 18/289/26 24/294/29
f 17/300/25 16/295/27 22/298/31 23/301/28
f 15/287/24 14/286/23 20/299/32 21/302/30
f 24/294/29 23/293/28 28/303/33 29/304/34
f 22/298/31 21/297/30 26/305/35 27/306/36
f 20/299/32 3/278/2 25/307/37
f 19/263/3 24/294/29 29/304/34
f 23/301/28 22/298/31 27/306/36 28/308/33
f 21/302/30 20/299/32 25/307/37 26/309/35
f 29/304/34 28/303/33 33/310/38 34/311/39
f 27/306/36 26/305/35 31/312/40 32/313/8
f 25/307/37 3/278/2 30/314/41
f 19/263/3 29/304/34 34/311/39
f 28/308/33 27/306/36 32/313/8 33/315/38
f 26/309/35 25/307/37 30/314/41 31/316/40
f 34/311/39 33/310/38 38/317/42 39/318/43
f 32/313/8 31/312/40 36/319/44 37/320/45
f 30/314/41 3/278/2 35/321/46
f 19/263/3 34/311/39 39/318/43
f 33/315/38 32/313/8 37/320/45 38/322/42
f 31/316/40 30/314/41 35/321/46 36/323/44
f 37/324/45 36/325/44 40/276/15 41/267/12
f 35/321/46 3/278/2 1/271/16
f 19/263/3 39/318/43 42/264/9
f 38/326/42 37/324/45 41/267/12 2/266/11
f 36/323/44 35/321/46 1/271/16 40/270/15
f 39/318/43 38/317/42 2/274/11 42/264/9
f 45/327/47 46/328/48 48/329/49 47/330/50
f 47/331/50 48/332/49 50/333/51 49/334/52
f 49/335/52 50/336/51 52/337/53 51/338/54
f 51/338/54 52/337/53 54/339/55 53/340/56
f 48/341/49 46/342/48 56/343/57 54/344/55 52/345/53 50/346/51
f 53/347/56 54/348/55 56/349/57 55/350/58
f 55/351/58 56/352/57 46/328/48 45/327/47
