# Blender v2.79 (sub 0) OBJ File: 'menu.blend'
# www.blender.org
mtllib menu.mtl
o Sphere.001
v 0.126858 -0.278540 0.609149
v 0.126858 -0.433507 0.609149
v 0.126858 -0.278540 -0.609149
v 0.126858 -0.433507 -0.609149
v 0.126858 0.415940 0.609149
v 0.126858 0.260973 0.609149
v 0.126858 0.415940 -0.609149
v 0.126858 0.260973 -0.609149
v 0.126858 0.077483 0.609149
v 0.126858 -0.077483 0.609149
v 0.126858 0.077483 -0.609149
v 0.126858 -0.077483 -0.609149
v 0.000000 -0.309017 -0.951056
v 0.000000 -0.809017 -0.587785
v 0.050748 0.951057 -0.250000
v 0.096528 0.809017 -0.475528
v 0.132860 0.587785 -0.654508
v 0.156186 0.309017 -0.769421
v 0.164224 -0.000000 -0.809017
v 0.156186 -0.309017 -0.769421
v 0.132860 -0.587785 -0.654508
v 0.096528 -0.809017 -0.475528
v 0.050748 -0.951057 -0.250000
v 0.082112 0.951057 -0.095491
v 0.156186 0.809017 -0.181635
v 0.214971 0.587785 -0.250000
v 0.214971 -0.587785 -0.250000
v 0.156186 -0.809017 -0.181635
v 0.082112 -0.951057 -0.095491
v 0.082112 0.951057 0.095492
v 0.156186 0.809017 0.181636
v 0.214971 0.587785 0.250000
v 0.214971 -0.587785 0.250000
v 0.156186 -0.809017 0.181636
v 0.082112 -0.951057 0.095492
v 0.050748 0.951057 0.250001
v 0.096528 0.809017 0.475529
v 0.132860 0.587785 0.654509
v 0.156186 0.309017 0.769421
v 0.164224 -0.000000 0.809017
v 0.156186 -0.309017 0.769421
v 0.132860 -0.587785 0.654509
v 0.096528 -0.809017 0.475529
v 0.050748 -0.951057 0.250000
v 0.000000 0.951057 0.309018
v 0.000000 0.809017 0.587786
v -0.000000 0.587785 0.809018
v 0.000000 0.309017 0.951057
v 0.000000 -0.000000 1.000001
v -0.000000 -0.309017 0.951057
v -0.000000 -0.587785 0.809018
v 0.000000 -0.809017 0.587786
v 0.000000 -0.951057 0.309017
v -0.000000 1.000000 0.000001
v -0.050748 0.951057 0.250001
v -0.096528 0.809017 0.475529
v -0.132860 0.587785 0.654509
v -0.156186 0.309017 0.769422
v -0.164223 -0.000000 0.809018
v -0.156186 -0.309017 0.769421
v -0.132860 -0.587785 0.654509
v -0.096528 -0.809017 0.475529
v -0.050748 -0.951057 0.250000
v -0.082112 0.951057 0.095492
v -0.156186 0.809017 0.181636
v -0.214971 0.587785 0.250000
v -0.252714 0.309017 0.293893
v -0.265719 -0.000000 0.309018
v -0.252714 -0.309017 0.293893
v -0.214971 -0.587785 0.250000
v -0.156186 -0.809017 0.181636
v -0.082112 -0.951057 0.095492
v -0.082112 0.951057 -0.095491
v -0.156186 0.809017 -0.181635
v -0.214971 0.587785 -0.250000
v -0.252714 0.309017 -0.293892
v -0.265719 -0.000000 -0.309017
v -0.252714 -0.309017 -0.293892
v -0.214971 -0.587785 -0.250000
v -0.156186 -0.809017 -0.181635
v -0.082112 -0.951057 -0.095491
v -0.050748 0.951057 -0.250000
v -0.096528 0.809017 -0.475528
v -0.132860 0.587785 -0.654509
v -0.156186 0.309017 -0.769421
v -0.164224 -0.000000 -0.809017
v -0.156186 -0.309017 -0.769421
v -0.132860 -0.587785 -0.654509
v -0.096528 -0.809017 -0.475528
v -0.050748 -0.951057 -0.250000
v -0.000000 0.951057 -0.309017
v -0.000000 0.809017 -0.587785
v -0.000000 0.587785 -0.809017
v -0.000000 0.309017 -0.951057
v -0.000000 -0.000000 -1.000000
v -0.000000 -0.587785 -0.809017
v -0.000000 -0.951057 -0.309017
v 0.000000 -1.000000 0.000000
v 0.200764 -0.077483 -0.609149
v 0.200764 0.077483 0.609149
v 0.200764 0.077483 -0.609149
v 0.262458 0.077483 -0.305225
v 0.262458 0.077483 0.305225
v 0.204795 -0.000000 0.609149
v 0.200764 -0.077483 0.609149
v 0.262458 -0.077483 -0.305224
v 0.262458 -0.077483 0.305225
v 0.204795 -0.000000 -0.609149
v 0.191219 0.260973 -0.609149
v 0.238238 0.415940 0.277058
v 0.170826 0.415940 0.609149
v 0.170826 0.415940 -0.609149
v 0.238238 0.415940 -0.277057
v 0.188720 0.309017 0.609149
v 0.191219 0.260973 0.609149
v 0.254736 0.260973 -0.296244
v 0.254736 0.260973 0.296244
v 0.188720 0.309017 -0.609149
v 0.235859 -0.433507 -0.274291
v 0.167886 -0.433507 -0.609149
v 0.190305 -0.278540 0.609149
v 0.190305 -0.278540 -0.609149
v 0.253997 -0.278540 -0.295384
v 0.253997 -0.278540 0.295385
v 0.167886 -0.433507 0.609149
v 0.188720 -0.309017 0.609149
v 0.235859 -0.433507 0.274292
v 0.188720 -0.309017 -0.609149
vt 0.296239 0.885653
vt 0.569171 0.885653
vt 0.569171 0.920370
vt 0.296239 0.920370
vt 0.762135 0.309400
vt 0.762135 0.360273
vt 0.768963 0.359002
vt 0.796852 0.342297
vt 0.796852 0.309400
vt 0.296239 0.726718
vt 0.569171 0.726718
vt 0.569171 0.759615
vt 0.494154 0.814119
vt 0.371256 0.814119
vt 0.296239 0.759615
vt 0.296239 0.814819
vt 0.569171 0.814819
vt 0.569171 0.849536
vt 0.296239 0.849536
vt 0.726718 0.309400
vt 0.726718 0.344654
vt 0.750671 0.359002
vt 0.761435 0.361006
vt 0.761435 0.309400
vt 0.102887 0.726718
vt 0.102887 0.999650
vt 0.051280 0.999650
vt 0.000350 0.929551
vt 0.000350 0.796817
vt 0.051280 0.726718
vt 0.296239 0.850236
vt 0.569171 0.850236
vt 0.569171 0.884953
vt 0.296239 0.884953
vt 0.632363 0.726718
vt 0.573103 0.726718
vt 0.569871 0.744076
vt 0.573103 0.761435
vt 0.632363 0.761435
vt 0.944875 0.000350
vt 0.944875 0.273282
vt 0.885615 0.273282
vt 0.836147 0.205195
vt 0.836147 0.068438
vt 0.885615 0.000350
vt 0.892144 0.495214
vt 0.822916 0.495214
vt 0.822916 0.626894
vt 0.892144 0.620449
vt 0.066190 0.691404
vt 0.095322 0.651307
vt 0.172721 0.676456
vt 0.172721 0.726018
vt 0.518164 0.544776
vt 0.477473 0.600783
vt 0.518164 0.614004
vt 0.954595 0.495214
vt 0.954595 0.601745
vt 0.753687 0.495214
vt 0.691236 0.495214
vt 0.691236 0.601745
vt 0.753687 0.620449
vt 0.132030 0.600783
vt 0.172721 0.544776
vt 0.172721 0.614004
vt 0.440765 0.651307
vt 0.411633 0.691404
vt 0.518164 0.726018
vt 0.518164 0.676456
vt 0.250820 0.353963
vt 0.181592 0.362834
vt 0.181592 0.318058
vt 0.198950 0.318058
vt 0.198950 0.249971
vt 0.243992 0.247766
vt 0.243992 0.318058
vt 0.250820 0.318058
vt 0.250121 0.651307
vt 0.279253 0.691404
vt 0.558856 0.600783
vt 0.313272 0.328220
vt 0.278709 0.318058
vt 0.278709 0.243041
vt 0.313272 0.237599
vt 0.112364 0.353963
vt 0.049912 0.328220
vt 0.049912 0.237599
vt 0.088410 0.243660
vt 0.088410 0.318058
vt 0.112364 0.318058
vt 0.213413 0.600783
vt 0.624695 0.691404
vt 0.595564 0.651307
vt 0.123127 0.318058
vt 0.123127 0.247959
vt 0.164234 0.249971
vt 0.164234 0.318058
vt 0.238561 0.566169
vt 0.297956 0.585467
vt 0.643399 0.585467
vt 0.584004 0.566169
vt 0.000350 0.222283
vt 0.000350 0.140901
vt 0.049912 0.125585
vt 0.278709 0.120143
vt 0.313272 0.125585
vt 0.362834 0.222283
vt 0.362834 0.140901
vt 0.238561 0.523383
vt 0.297956 0.504085
vt 0.643399 0.504085
vt 0.584004 0.523383
vt 0.345093 0.600783
vt 0.345093 0.488769
vt 0.278709 0.045126
vt 0.250820 0.045126
vt 0.250820 0.009221
vt 0.313272 0.034964
vt 0.690535 0.600783
vt 0.690535 0.488769
vt 0.213413 0.488769
vt 0.624696 0.398148
vt 0.595564 0.438245
vt 0.822916 0.890954
vt 0.753687 0.884509
vt 0.753687 0.759274
vt 0.822916 0.759274
vt 0.250121 0.438245
vt 0.558856 0.488769
vt 0.892144 0.884509
vt 0.892144 0.759274
vt 0.279253 0.398148
vt 0.954595 0.865805
vt 0.954595 0.759274
vt 0.691236 0.865805
vt 0.691236 0.759274
vt 0.892144 0.634039
vt 0.954595 0.652743
vt 0.691236 0.652743
vt 0.753688 0.634039
vt 0.172721 0.475548
vt 0.518164 0.363534
vt 0.518164 0.413096
vt 0.822916 0.627594
vt 0.172721 0.413096
vt 0.518164 0.475548
vt 0.172721 0.363534
vt 0.095322 0.438245
vt 0.066190 0.398148
vt 0.477473 0.488769
vt 0.676455 0.034964
vt 0.614004 0.009221
vt 0.614004 0.115752
vt 0.676455 0.125585
vt 0.475548 0.009221
vt 0.413096 0.034964
vt 0.413096 0.125585
vt 0.475548 0.115752
vt 0.132030 0.488769
vt 0.411633 0.398148
vt 0.440765 0.438245
vt 0.544776 0.000350
vt 0.544776 0.112364
vt 0.544776 0.250820
vt 0.614004 0.247432
vt 0.363534 0.140901
vt 0.363534 0.222283
vt 0.413096 0.237599
vt 0.452324 0.523383
vt 0.676455 0.237599
vt 0.475548 0.247432
vt 0.106881 0.523383
vt 0.726017 0.140901
vt 0.726017 0.222283
vt 0.047486 0.504084
vt 0.392929 0.504085
vt 0.106881 0.566169
vt 0.047486 0.585467
vt 0.392929 0.585467
vt 0.452324 0.566169
vt 0.544776 0.362834
vt 0.614004 0.353963
vt 0.000350 0.488769
vt 0.000350 0.600783
vt 0.676455 0.328220
vt 0.413096 0.328220
vt 0.475548 0.353963
vt 0.345793 0.488769
vt 0.345793 0.600783
vt 0.822916 0.363534
vt 0.753688 0.369979
vt 0.892144 0.369979
vt 0.954595 0.388683
vt 0.691236 0.388683
vt 0.729950 0.273982
vt 0.789210 0.273982
vt 0.789210 0.308699
vt 0.729950 0.308699
vt 0.726718 0.291341
vt 0.164234 0.113213
vt 0.123127 0.115225
vt 0.181592 0.045126
vt 0.164234 0.045126
vt 0.123127 0.045126
vt 0.112364 0.045126
vt 0.112364 0.009221
vt 0.181592 0.000350
vt 0.776186 0.273282
vt 0.835446 0.273282
vt 0.835446 0.000350
vt 0.776186 0.000350
vt 0.726718 0.068438
vt 0.726718 0.205195
vt 0.633064 0.761973
vt 0.633064 0.726718
vt 0.667781 0.726718
vt 0.667781 0.778324
vt 0.657017 0.776320
vt 0.088410 0.119524
vt 0.088410 0.045126
vt 0.049912 0.034964
vt 0.260284 0.999650
vt 0.295539 0.999650
vt 0.295539 0.726718
vt 0.260284 0.726718
vt 0.206231 0.801116
vt 0.206231 0.925252
vt 0.243992 0.045126
vt 0.243992 0.115418
vt 0.198950 0.113213
vt 0.198950 0.045126
vt 0.569871 0.813009
vt 0.569871 0.762135
vt 0.604588 0.762135
vt 0.604588 0.795032
vt 0.576699 0.811738
vt 0.154657 0.999650
vt 0.205531 0.999650
vt 0.205531 0.726718
vt 0.154657 0.726718
vt 0.103587 0.797010
vt 0.103587 0.929358
vn 0.5773 -0.5773 0.5773
vn 0.5773 -0.5773 -0.5773
vn 0.5773 0.5773 -0.5773
vn 0.5773 0.5773 0.5773
vn 0.5737 -0.6865 -0.4466
vn 0.7801 -0.0847 -0.6199
vn 0.5795 0.5930 -0.5590
vn 0.7728 0.6290 0.0845
vn 0.7728 0.6290 -0.0845
vn 0.5795 0.5930 0.5590
vn 0.5795 -0.5930 -0.5590
vn 0.7801 0.0847 -0.6199
vn 0.5737 0.6865 -0.4466
vn 0.7088 0.7020 0.0692
vn 0.7088 0.7020 -0.0692
vn 0.5737 0.6865 0.4466
vn 0.5807 -0.6431 -0.4991
vn 0.7841 0.0000 -0.6206
vn 0.5807 0.6431 -0.4991
vn 0.7401 0.6681 0.0764
vn 0.7401 0.6681 -0.0764
vn 0.5807 0.6431 0.4991
vn 0.0000 -0.2887 -0.9574
vn 0.0000 0.0000 -1.0000
vn 0.8909 0.0000 -0.4542
vn 0.8792 -0.1684 -0.4456
vn 0.0000 0.5534 -0.8329
vn 0.0000 0.7718 -0.6359
vn 0.7434 0.5724 -0.3459
vn 0.8379 0.3544 -0.4151
vn 0.0000 -1.0000 0.0000
vn 0.0000 -0.9247 -0.3807
vn 0.5418 -0.8139 -0.2099
vn 0.0000 -0.5534 -0.8329
vn 0.8379 -0.3544 -0.4151
vn 0.0000 0.2887 -0.9574
vn 0.8792 0.1684 -0.4456
vn 0.0000 0.9247 -0.3807
vn 0.0000 1.0000 0.0000
vn 0.5418 0.8139 -0.2099
vn 0.0000 -0.7718 -0.6359
vn 0.7434 -0.5724 -0.3459
vn 0.7841 0.0000 0.6206
vn 0.7088 -0.7020 -0.0692
vn 0.5737 -0.6865 0.4466
vn 0.7801 -0.0847 0.6199
vn 0.9137 0.3952 -0.0947
vn 0.9709 0.2170 -0.1007
vn 0.7002 -0.7108 -0.0657
vn 0.9709 -0.2170 -0.1007
vn 0.7728 -0.6290 -0.0845
vn 0.5795 -0.5930 0.5590
vn 0.7801 0.0847 0.6199
vn 0.7002 0.7108 -0.0657
vn 0.9137 -0.3952 -0.0947
vn 0.7401 -0.6681 -0.0764
vn 0.5807 -0.6431 0.4991
vn 0.7002 0.7108 0.0657
vn 0.9137 0.3952 0.0947
vn 0.9137 -0.3952 0.0947
vn 0.7002 -0.7108 0.0657
vn 0.9709 0.2170 0.1007
vn 0.9709 -0.2170 0.1007
vn 0.5418 0.8139 0.2099
vn 0.7434 0.5724 0.3459
vn 0.7434 -0.5724 0.3459
vn 0.5418 -0.8139 0.2099
vn 0.8379 0.3544 0.4151
vn 0.8792 -0.1684 0.4456
vn 0.8379 -0.3544 0.4151
vn 0.0000 0.9247 0.3807
vn 0.0000 -0.5534 0.8329
vn 0.0000 -0.7718 0.6359
vn 0.8909 0.0000 0.4542
vn 0.8792 0.1684 0.4456
vn 0.0000 0.2887 0.9574
vn 0.0000 0.0000 1.0000
vn 0.0000 0.7718 0.6359
vn 0.0000 -0.9247 0.3807
vn 0.0000 -0.2887 0.9574
vn 0.0000 0.5534 0.8329
vn -0.8792 -0.1684 0.4456
vn -0.8379 -0.3544 0.4151
vn -0.8379 0.3544 0.4151
vn -0.8792 0.1684 0.4456
vn -0.5418 0.8139 0.2099
vn -0.7434 -0.5724 0.3459
vn -0.8909 0.0000 0.4542
vn -0.7434 0.5724 0.3459
vn -0.5418 -0.8139 0.2099
vn -0.9137 0.3952 0.0947
vn -0.9709 0.2170 0.1007
vn -0.7002 -0.7108 0.0657
vn -0.9899 -0.0981 0.1024
vn -0.9709 -0.2170 0.1007
vn -0.9899 0.0981 0.1024
vn -0.7002 0.7108 0.0657
vn -0.9137 -0.3952 0.0947
vn -0.9947 0.0000 0.1028
vn -0.9947 0.0000 -0.1028
vn -0.9899 -0.0981 -0.1024
vn -0.9137 0.3952 -0.0947
vn -0.9709 0.2170 -0.1007
vn -0.7002 -0.7108 -0.0657
vn -0.9709 -0.2170 -0.1007
vn -0.9899 0.0981 -0.1024
vn -0.7002 0.7108 -0.0657
vn -0.9137 -0.3952 -0.0947
vn -0.5418 0.8139 -0.2099
vn -0.7434 0.5724 -0.3459
vn -0.7434 -0.5724 -0.3459
vn -0.5418 -0.8139 -0.2099
vn -0.8909 0.0000 -0.4542
vn -0.8792 -0.1684 -0.4456
vn -0.8379 0.3544 -0.4151
vn -0.8379 -0.3544 -0.4151
vn -0.8792 0.1684 -0.4456
vn 0.7401 -0.6681 0.0764
vn 0.7728 -0.6290 0.0845
vn 0.7088 -0.7020 0.0692
usemtl Material.002
s 1
f 3/1/1 1/2/2 2/3/3 4/4/4
f 1/5/2 121/6/5 126/7/6 125/8/7 2/9/3
f 4/10/4 2/11/3 125/12/7 127/13/8 119/14/9 120/15/10
f 7/16/1 5/17/2 6/18/3 8/19/4
f 5/20/2 111/21/11 114/22/12 115/23/13 6/24/3
f 8/25/4 6/26/3 115/27/13 117/28/14 116/29/15 109/30/16
f 11/31/1 9/32/2 10/33/3 12/34/4
f 9/35/2 100/36/17 104/37/18 105/38/19 10/39/3
f 12/40/4 10/41/3 105/42/19 107/43/20 106/44/21 99/45/22
f 13/46/23 95/47/24 19/48/25 20/49/26
f 93/50/27 92/51/28 16/52/29 17/53/30
f 98/54/31 97/55/32 23/56/33
f 96/57/34 13/46/23 20/49/26 21/58/35
f 94/59/36 93/60/27 17/61/30 18/62/37
f 91/63/38 54/64/39 15/65/40
f 14/66/41 96/67/34 21/68/35 22/69/42
f 95/47/24 94/59/36 18/62/37 19/48/25
f 92/51/28 91/63/38 15/65/40 16/52/29
f 97/55/32 14/66/41 22/69/42 23/56/33
f 20/70/26 19/71/25 108/72/43 99/73/22 106/74/21 123/75/44 122/76/45 128/77/46
f 17/53/30 16/52/29 25/78/47 26/79/48
f 98/54/31 23/56/33 29/80/49
f 21/81/35 20/70/26 128/77/46 120/82/10 119/83/9 27/84/50
f 18/85/37 17/86/30 26/87/48 113/88/51 112/89/52 118/90/53
f 15/65/40 54/64/39 24/91/54
f 22/69/42 21/68/35 27/92/50 28/93/55
f 19/71/25 18/85/37 118/90/53 109/94/16 116/95/15 102/96/56 101/97/57 108/72/43
f 16/52/29 15/65/40 24/91/54 25/78/47
f 23/56/33 22/69/42 28/93/55 29/80/49
f 25/78/47 24/91/54 30/98/58 31/99/59
f 29/80/49 28/93/55 34/100/60 35/101/61
f 26/87/48 25/102/47 31/103/59 32/104/62
f 98/54/31 29/80/49 35/101/61
f 27/84/50 119/83/9 127/105/8 33/106/63
f 24/91/54 54/64/39 30/98/58
f 28/107/55 27/84/50 33/106/63 34/108/60
f 31/99/59 30/98/58 36/109/64 37/110/65
f 35/101/61 34/100/60 43/111/66 44/112/67
f 32/113/62 31/99/59 37/110/65 38/114/68
f 98/54/31 35/101/61 44/112/67
f 33/106/63 127/105/8 125/115/7 126/116/6 41/117/69 42/118/70
f 30/98/58 54/64/39 36/109/64
f 34/100/60 33/119/63 42/120/70 43/111/66
f 36/109/64 54/64/39 45/121/71
f 43/111/66 42/120/70 51/122/72 52/123/73
f 40/124/74 39/125/75 48/126/76 49/127/77
f 37/110/65 36/109/64 45/121/71 46/128/78
f 44/112/67 43/111/66 52/123/73 53/129/79
f 41/130/69 40/124/74 49/127/77 50/131/80
f 38/114/68 37/110/65 46/128/78 47/132/81
f 98/54/31 44/112/67 53/129/79
f 42/133/70 41/130/69 50/131/80 51/134/72
f 39/125/75 38/135/68 47/136/81 48/126/76
f 51/134/72 50/131/80 60/137/82 61/138/83
f 48/126/76 47/136/81 57/139/84 58/140/85
f 45/121/71 54/64/39 55/141/86
f 52/123/73 51/122/72 61/142/83 62/143/87
f 49/127/77 48/126/76 58/140/85 59/144/88
f 46/128/78 45/121/71 55/141/86 56/145/89
f 53/129/79 52/123/73 62/143/87 63/146/90
f 50/131/80 49/127/77 59/144/88 60/137/82
f 47/132/81 46/128/78 56/145/89 57/147/84
f 98/54/31 53/129/79 63/146/90
f 57/147/84 56/145/89 65/148/91 66/149/92
f 98/54/31 63/146/90 72/150/93
f 61/151/83 60/152/82 69/153/94 70/154/95
f 58/155/85 57/156/84 66/157/92 67/158/96
f 55/141/86 54/64/39 64/159/97
f 62/143/87 61/142/83 70/160/95 71/161/98
f 59/162/88 58/155/85 67/158/96 68/163/99
f 56/145/89 55/141/86 64/159/97 65/148/91
f 63/146/90 62/143/87 71/161/98 72/150/93
f 60/152/82 59/162/88 68/163/99 69/153/94
f 69/153/94 68/163/99 77/164/100 78/165/101
f 66/157/92 65/166/91 74/167/102 75/168/103
f 98/54/31 72/150/93 81/169/104
f 70/154/95 69/153/94 78/165/101 79/170/105
f 67/158/96 66/157/92 75/168/103 76/171/106
f 64/159/97 54/64/39 73/172/107
f 71/173/98 70/154/95 79/170/105 80/174/108
f 68/163/99 67/158/96 76/171/106 77/164/100
f 65/148/91 64/159/97 73/172/107 74/175/102
f 72/150/93 71/161/98 80/176/108 81/169/104
f 74/175/102 73/172/107 82/177/109 83/178/110
f 81/169/104 80/176/108 89/179/111 90/180/112
f 78/165/101 77/164/100 86/181/113 87/182/114
f 75/183/103 74/175/102 83/178/110 84/184/115
f 98/54/31 81/169/104 90/180/112
f 79/170/105 78/165/101 87/182/114 88/185/116
f 76/171/106 75/168/103 84/186/115 85/187/117
f 73/172/107 54/64/39 82/177/109
f 80/176/108 79/188/105 88/189/116 89/179/111
f 77/164/100 76/171/106 85/187/117 86/181/113
f 89/179/111 88/189/116 96/67/34 14/66/41
f 86/190/113 85/191/117 94/59/36 95/47/24
f 83/178/110 82/177/109 91/63/38 92/51/28
f 90/180/112 89/179/111 14/66/41 97/55/32
f 87/192/114 86/190/113 95/47/24 13/46/23
f 84/184/115 83/178/110 92/51/28 93/50/27
f 98/54/31 90/180/112 97/55/32
f 88/193/116 87/192/114 13/46/23 96/57/34
f 85/191/117 84/194/115 93/60/27 94/59/36
f 82/177/109 54/64/39 91/63/38
f 101/195/57 11/196/1 12/197/4 99/198/22 108/199/43
f 103/200/118 102/96/56 116/95/15 117/201/14
f 104/202/18 100/203/17 103/200/118 117/201/14 115/204/13 114/205/12 39/206/75 40/207/74
f 100/208/17 9/209/2 11/210/1 101/211/57 102/212/56 103/213/118
f 112/214/52 7/215/1 8/216/4 109/217/16 118/218/53
f 110/219/119 113/88/51 26/87/48 32/104/62
f 114/205/12 111/220/11 110/219/119 32/104/62 38/221/68 39/206/75
f 111/222/11 5/223/2 7/224/1 112/225/52 113/226/51 110/227/119
f 126/116/6 121/228/5 124/229/120 107/230/20 105/231/19 104/202/18 40/207/74 41/117/69
f 122/232/45 3/233/1 4/234/4 120/235/10 128/236/46
f 124/229/120 123/75/44 106/74/21 107/230/20
f 121/237/5 1/238/2 3/239/1 122/240/45 123/241/44 124/242/120
