# Blender v2.79 (sub 0) OBJ File: 'o2_plant.blend'
# www.blender.org
mtllib o2_plant.mtl
o Cube
v 3.803158 1.070751 -0.723873
v 3.803158 1.070751 3.743315
v -3.803158 1.070751 3.743315
v -3.803156 1.070751 -0.723874
v 3.803160 2.041441 -0.723872
v 3.803156 2.041441 3.743316
v -3.803159 2.041441 3.743314
v -3.803157 2.041441 -0.723873
v 1.159964 2.246653 0.841937
v 1.393314 8.187786 1.405294
v 1.956671 7.872644 -0.538000
v 0.980909 7.872644 1.817700
v 0.829958 7.442150 1.968651
v 0.576734 2.561796 0.841937
v 0.363257 2.992289 0.841937
v 1.956671 8.187786 0.045230
v 3.083385 2.992290 -0.284776
v 2.932433 2.561796 -0.133825
v 1.956671 7.442150 2.435351
v 1.956671 7.872644 2.221874
v 1.956671 8.187786 1.638644
v 1.393314 8.187786 0.278580
v 2.520028 8.187786 1.405294
v 2.932434 7.872644 1.817700
v 3.083385 7.442150 1.968651
v 0.829957 2.992289 1.968651
v 0.980909 7.872644 -0.133825
v 0.980908 2.561796 1.817700
v 1.393314 2.246653 1.405294
v 2.520027 2.246653 0.278580
v 0.829958 7.442150 -0.284777
v 1.956671 2.246653 1.638644
v 3.550085 7.442150 0.841937
v 3.336608 7.872644 0.841937
v 2.753378 8.187786 0.841937
v 1.956671 8.303137 0.841937
v 1.956671 2.561796 2.221874
v 2.753377 2.246653 0.841937
v 2.520028 8.187786 0.278580
v 2.932434 7.872644 -0.133826
v 3.083385 7.442150 -0.284777
v 1.956671 2.992289 2.435351
v 1.956671 2.246654 0.045230
v 3.083385 2.992289 1.968651
v 2.932433 2.561796 1.817700
v 3.336608 2.561796 0.841937
v 3.550085 2.992289 0.841937
v 1.956671 2.992290 -0.751477
v 1.956671 2.561796 -0.538000
v 1.956671 7.442150 -0.751477
v 2.520028 2.246653 1.405294
v 0.363258 7.442150 0.841937
v 0.576734 7.872644 0.841937
v 0.829957 2.992290 -0.284777
v 0.980908 2.561796 -0.133826
v 1.159964 8.187786 0.841937
v 1.393314 2.246654 0.278580
v 1.956671 2.131303 0.841937
v -2.745355 2.246653 0.841937
v -2.512005 8.187786 1.405294
v -1.948648 7.872644 -0.538000
v -2.924410 7.872644 1.817700
v -3.075361 7.442150 1.968651
v -3.328586 2.561796 0.841937
v -3.542062 2.992289 0.841937
v -1.948648 8.187786 0.045230
v -0.821935 2.992290 -0.284776
v -0.972886 2.561796 -0.133825
v -1.948648 7.442150 2.435351
v -1.948648 7.872644 2.221874
v -1.948648 8.187786 1.638644
v -2.512005 8.187786 0.278580
v -1.385291 8.187786 1.405294
v -0.972885 7.872644 1.817700
v -0.821934 7.442150 1.968651
v -3.075362 2.992289 1.968651
v -2.924411 7.872644 -0.133825
v -2.924411 2.561796 1.817700
v -2.512005 2.246653 1.405294
v -1.385292 2.246653 0.278580
v -3.075361 7.442150 -0.284777
v -1.948648 2.246653 1.638644
v -0.355234 7.442150 0.841937
v -0.568711 7.872644 0.841937
v -1.151941 8.187786 0.841937
v -1.948648 8.303137 0.841937
v -1.948648 2.561796 2.221874
v -1.151942 2.246653 0.841937
v -1.385291 8.187786 0.278580
v -0.972885 7.872644 -0.133826
v -0.821934 7.442150 -0.284777
v -1.948648 2.992289 2.435351
v -1.948648 2.246654 0.045230
v -0.821935 2.992289 1.968651
v -0.972886 2.561796 1.817700
v -0.568711 2.561796 0.841937
v -0.355235 2.992289 0.841937
v -1.948648 2.992290 -0.751477
v -1.948648 2.561796 -0.538000
v -1.948648 7.442150 -0.751477
v -1.385291 2.246653 1.405294
v -3.542062 7.442150 0.841937
v -3.328585 7.872644 0.841937
v -3.075362 2.992290 -0.284777
v -2.924411 2.561796 -0.133826
v -2.745355 8.187786 0.841937
v -2.512005 2.246654 0.278580
v -1.948648 2.131303 0.841937
v -1.241772 2.063427 4.046739
v -1.241772 5.395708 4.046739
v -1.241772 2.063427 3.214260
v -1.241772 6.008760 3.214260
v 1.241772 2.063427 4.046739
v 1.241772 5.395708 4.046739
v 1.241772 2.063427 3.214260
v 1.241772 6.008760 3.214260
v -3.805061 -0.000468 3.741756
v -3.805061 1.066103 3.741756
v -3.805061 -0.000468 2.675184
v -3.805061 1.066103 2.675184
v -2.738489 -0.000468 3.741756
v -2.738489 1.066103 3.741756
v -2.738489 -0.000468 2.675184
v -2.738489 1.066103 2.675184
v 2.738490 -0.000468 3.749271
v 2.738490 1.066103 3.749271
v 2.738490 -0.000468 2.682699
v 2.738490 1.066103 2.682699
v 3.805062 -0.000468 3.749271
v 3.805062 1.066103 3.749271
v 3.805062 -0.000468 2.682699
v 3.805062 1.066103 2.682699
v 2.738490 -0.000468 0.331253
v 2.738490 1.066103 0.331253
v 2.738490 -0.000468 -0.735320
v 2.738490 1.066103 -0.735320
v 3.805062 -0.000468 0.331253
v 3.805062 1.066103 0.331253
v 3.805062 -0.000468 -0.735320
v 3.805062 1.066103 -0.735320
v -3.805060 -0.000468 0.331253
v -3.805060 1.066103 0.331253
v -3.805060 -0.000468 -0.735320
v -3.805060 1.066103 -0.735320
v -2.738488 -0.000468 0.331253
v -2.738488 1.066103 0.331253
v -2.738488 -0.000468 -0.735320
v -2.738488 1.066103 -0.735320
vt 0.475078 0.000707
vt 0.238600 0.000707
vt 0.238600 0.403360
vt 0.475078 0.403360
vt 0.237185 0.000707
vt 0.237185 0.403360
vt 0.000707 0.403360
vt 0.000707 0.000708
vt 0.905000 0.157981
vt 0.956385 0.157981
vt 0.956385 0.394458
vt 0.905000 0.394458
vt 0.728667 0.738448
vt 0.677282 0.738448
vt 0.677282 0.335795
vt 0.728667 0.335795
vt 0.728667 0.739863
vt 0.677282 0.739863
vt 0.677282 0.976340
vt 0.728667 0.976340
vt 0.730082 0.560633
vt 0.781467 0.560633
vt 0.781467 0.157981
vt 0.730082 0.157981
vt 0.927533 0.562048
vt 0.927533 0.738448
vt 0.971602 0.770901
vt 0.971602 0.562048
vt 0.252881 0.613627
vt 0.252881 0.404775
vt 0.121411 0.404775
vt 0.121411 0.613627
vt 0.191822 0.615042
vt 0.191822 0.823895
vt 0.147754 0.791442
vt 0.147754 0.615042
vt 0.132178 0.778142
vt 0.000707 0.778142
vt 0.000707 0.822211
vt 0.132178 0.822211
vt 0.653657 0.392256
vt 0.653657 0.335795
vt 0.597196 0.335795
vt 0.597196 0.392256
vt 0.532953 0.870268
vt 0.532953 0.813807
vt 0.476493 0.813807
vt 0.476493 0.870268
vt 0.754470 0.057168
vt 0.754470 0.000707
vt 0.810930 0.000707
vt 0.810930 0.057168
vt 0.612885 0.925368
vt 0.612885 0.868907
vt 0.669345 0.868907
vt 0.669345 0.925368
vt 0.926681 0.058583
vt 0.870221 0.058583
vt 0.870221 0.115044
vt 0.926681 0.115044
vt 0.840757 0.452832
vt 0.897218 0.452832
vt 0.897218 0.509292
vt 0.840757 0.509292
vt 0.653657 0.450131
vt 0.653657 0.393671
vt 0.597196 0.393671
vt 0.597196 0.450131
vt 0.368633 0.912174
vt 0.368633 0.855713
vt 0.312172 0.855713
vt 0.312172 0.912174
vt 0.812345 0.057168
vt 0.812345 0.000707
vt 0.868806 0.000707
vt 0.868806 0.057168
vt 0.898633 0.509292
vt 0.898633 0.452832
vt 0.955093 0.452832
vt 0.955093 0.509292
vt 0.926681 0.000707
vt 0.870221 0.000707
vt 0.870221 0.057168
vt 0.926681 0.057168
vt 0.866474 0.856899
vt 0.922934 0.856899
vt 0.922934 0.913360
vt 0.866474 0.913360
vt 0.810930 0.115044
vt 0.810930 0.058583
vt 0.754470 0.058583
vt 0.754470 0.115044
vt 0.590829 0.870268
vt 0.590829 0.813807
vt 0.534368 0.813807
vt 0.534368 0.870268
vt 0.812345 0.115044
vt 0.812345 0.058583
vt 0.868806 0.058583
vt 0.868806 0.115044
vt 0.017321 0.969538
vt 0.017321 0.913077
vt 0.073782 0.913077
vt 0.073782 0.969538
vt 0.310757 0.855713
vt 0.254296 0.855713
vt 0.254296 0.912174
vt 0.310757 0.912174
vt 0.411569 0.878726
vt 0.468030 0.878726
vt 0.468030 0.935186
vt 0.411569 0.935186
vt 0.839342 0.509292
vt 0.839342 0.452832
vt 0.782882 0.452832
vt 0.782882 0.509292
vt 0.922934 0.855484
vt 0.922934 0.799023
vt 0.866474 0.799023
vt 0.866474 0.855484
vt 0.782882 0.451417
vt 0.782882 0.394956
vt 0.839342 0.394956
vt 0.839342 0.451417
vt 0.476493 0.928144
vt 0.476493 0.871683
vt 0.532953 0.871683
vt 0.532953 0.928144
vt 0.897218 0.394956
vt 0.840757 0.394956
vt 0.840757 0.451417
vt 0.897218 0.451417
vt 0.534368 0.871683
vt 0.590829 0.871683
vt 0.590829 0.928144
vt 0.534368 0.928144
vt 0.976504 0.060352
vt 0.999293 0.060352
vt 0.999293 0.112005
vt 0.976504 0.119996
vt 0.389274 0.814765
vt 0.360750 0.802950
vt 0.337925 0.825774
vt 0.349740 0.854299
vt 0.163598 0.913077
vt 0.135074 0.924892
vt 0.135074 0.957172
vt 0.163598 0.968987
vt 0.282820 0.770670
vt 0.321785 0.786810
vt 0.305645 0.747845
vt 0.656555 0.474658
vt 0.633766 0.482649
vt 0.633766 0.534303
vt 0.656555 0.534303
vt 0.781431 0.590572
vt 0.797570 0.629537
vt 0.758606 0.613397
vt 0.389274 0.758855
vt 0.360750 0.770670
vt 0.282820 0.802950
vt 0.254296 0.814765
vt 0.254296 0.758855
vt 0.971342 0.799023
vt 0.948553 0.807014
vt 0.948553 0.858668
vt 0.971342 0.858668
vt 0.217741 0.972722
vt 0.194952 0.972722
vt 0.194952 0.921068
vt 0.217741 0.913077
vt 0.980589 0.217625
vt 0.957800 0.217625
vt 0.957800 0.165971
vt 0.980589 0.157981
vt 0.973016 0.681337
vt 0.995805 0.673346
vt 0.995805 0.621692
vt 0.973016 0.621692
vt 0.865059 0.657491
vt 0.836535 0.645676
vt 0.836535 0.613397
vt 0.865059 0.601582
vt 0.278500 0.913589
vt 0.301289 0.921580
vt 0.301289 0.973233
vt 0.278500 0.973233
vt 0.813710 0.590572
vt 0.947138 0.858668
vt 0.924349 0.858668
vt 0.924349 0.807014
vt 0.947138 0.799023
vt 0.293830 0.719321
vt 0.825525 0.697025
vt 0.813710 0.668501
vt 0.337925 0.747845
vt 0.349740 0.719321
vt 0.305645 0.825774
vt 0.133660 0.968987
vt 0.105135 0.957171
vt 0.105135 0.924892
vt 0.133660 0.913077
vt 0.730082 0.657491
vt 0.758606 0.645676
vt 0.781431 0.668501
vt 0.769616 0.697025
vt 0.947138 0.918312
vt 0.924349 0.910321
vt 0.948553 0.910321
vt 0.971342 0.918312
vt 0.976504 0.000707
vt 0.999293 0.008698
vt 0.326908 0.973233
vt 0.349696 0.973233
vt 0.349696 0.921580
vt 0.326908 0.913589
vt 0.730082 0.601582
vt 0.825525 0.562048
vt 0.633766 0.585956
vt 0.656555 0.593947
vt 0.769616 0.562048
vt 0.302704 0.973233
vt 0.325493 0.965243
vt 0.325493 0.913589
vt 0.302704 0.913589
vt 0.293830 0.854299
vt 0.995805 0.570039
vt 0.973016 0.562048
vt 0.980589 0.277269
vt 0.957800 0.269279
vt 0.299946 0.717906
vt 0.364505 0.717906
vt 0.410155 0.672257
vt 0.410155 0.607698
vt 0.364505 0.562048
vt 0.299946 0.562048
vt 0.254296 0.607698
vt 0.254296 0.672257
vt 0.642846 0.000707
vt 0.597196 0.046357
vt 0.597196 0.110916
vt 0.642846 0.156566
vt 0.707405 0.156566
vt 0.753055 0.110916
vt 0.753055 0.046357
vt 0.707405 0.000707
vt 0.193237 0.615042
vt 0.252881 0.615042
vt 0.252881 0.850603
vt 0.193237 0.850603
vt 0.411569 0.641750
vt 0.471214 0.641750
vt 0.471214 0.877311
vt 0.411569 0.877311
vt 0.842526 0.393541
vt 0.782882 0.393541
vt 0.782882 0.157981
vt 0.842526 0.157981
vt 0.252881 0.911662
vt 0.252881 0.852018
vt 0.017321 0.852018
vt 0.017321 0.911662
vt 0.791141 0.934001
vt 0.850785 0.934001
vt 0.850785 0.698440
vt 0.791141 0.698440
vt 0.476493 0.473243
vt 0.536137 0.473243
vt 0.536137 0.237683
vt 0.476493 0.237683
vt 0.595782 0.473243
vt 0.595782 0.237683
vt 0.926118 0.797609
vt 0.866474 0.797609
vt 0.866474 0.562048
vt 0.926118 0.562048
vt 0.866474 0.914775
vt 0.889262 0.914775
vt 0.889262 0.966428
vt 0.866474 0.974419
vt 0.571936 0.766909
vt 0.560121 0.738385
vt 0.527842 0.738385
vt 0.516027 0.766909
vt 0.505017 0.715560
vt 0.476493 0.727375
vt 0.527842 0.660456
vt 0.543981 0.699420
vt 0.560121 0.660456
vt 0.277085 0.913589
vt 0.254296 0.921580
vt 0.254296 0.973233
vt 0.277085 0.973233
vt 0.107161 0.725379
vt 0.068196 0.709239
vt 0.107161 0.693099
vt 0.611470 0.727375
vt 0.582946 0.715560
vt 0.505017 0.683281
vt 0.476493 0.671466
vt 0.516027 0.631932
vt 0.392836 0.855713
vt 0.370047 0.863704
vt 0.370047 0.915358
vt 0.392836 0.915358
vt 0.980589 0.338329
vt 0.957800 0.338329
vt 0.957800 0.286675
vt 0.980589 0.278684
vt 0.975089 0.060352
vt 0.952300 0.060352
vt 0.952300 0.008698
vt 0.975089 0.000707
vt 0.972757 0.918312
vt 0.995546 0.910321
vt 0.995546 0.858668
vt 0.972757 0.858668
vt 0.000707 0.737194
vt 0.029232 0.725379
vt 0.052056 0.748204
vt 0.040241 0.776728
vt 0.980589 0.397973
vt 0.957800 0.389982
vt 0.084336 0.748204
vt 0.950885 0.060352
vt 0.928096 0.060352
vt 0.928096 0.008698
vt 0.950885 0.000707
vt 0.571936 0.631932
vt 0.000707 0.681284
vt 0.029232 0.693099
vt 0.103721 0.913077
vt 0.075197 0.924892
vt 0.075196 0.957171
vt 0.103721 0.968987
vt 0.040241 0.641750
vt 0.052056 0.670274
vt 0.096151 0.641750
vt 0.084336 0.670274
vt 0.582946 0.683281
vt 0.950885 0.119996
vt 0.928096 0.112005
vt 0.370047 0.967011
vt 0.392836 0.975002
vt 0.890677 0.914775
vt 0.913466 0.922765
vt 0.913466 0.974419
vt 0.890677 0.974419
vt 0.611470 0.671466
vt 0.980589 0.459032
vt 0.957800 0.459032
vt 0.957800 0.510686
vt 0.980589 0.518677
vt 0.135685 0.681284
vt 0.096151 0.776728
vt 0.241945 0.913077
vt 0.219156 0.913077
vt 0.219156 0.964731
vt 0.241945 0.972722
vt 0.193537 0.968987
vt 0.165013 0.957171
vt 0.165013 0.924892
vt 0.193537 0.913077
vt 0.980589 0.399388
vt 0.957800 0.407379
vt 0.995546 0.807014
vt 0.972757 0.799023
vt 0.975089 0.119996
vt 0.952300 0.112005
vt 0.135685 0.737194
vt 0.476493 0.520308
vt 0.522143 0.474658
vt 0.586701 0.474658
vt 0.632351 0.520308
vt 0.632351 0.584867
vt 0.586701 0.630517
vt 0.522143 0.630517
vt 0.476493 0.584867
vt 0.254296 0.450425
vt 0.254296 0.514983
vt 0.299946 0.560633
vt 0.364505 0.560633
vt 0.410155 0.514983
vt 0.410155 0.450425
vt 0.364505 0.404775
vt 0.299946 0.404775
vt 0.903585 0.393541
vt 0.843941 0.393541
vt 0.843941 0.157981
vt 0.903585 0.157981
vt 0.612885 0.631932
vt 0.672529 0.631932
vt 0.672529 0.867492
vt 0.612885 0.867492
vt 0.471214 0.640335
vt 0.411569 0.640335
vt 0.411569 0.404775
vt 0.471214 0.404775
vt 0.000707 0.640335
vt 0.060352 0.640335
vt 0.060352 0.404775
vt 0.000707 0.404775
vt 0.119996 0.640335
vt 0.119996 0.404775
vt 0.476493 0.236268
vt 0.536137 0.236268
vt 0.536137 0.000707
vt 0.476493 0.000707
vt 0.595782 0.236268
vt 0.595782 0.000707
vt 0.789726 0.934001
vt 0.730082 0.934001
vt 0.730082 0.698440
vt 0.789726 0.698440
vt 0.597196 0.334380
vt 0.597196 0.157981
vt 0.728667 0.157981
vt 0.728667 0.334380
vt 0.476493 0.768324
vt 0.607963 0.768324
vt 0.607963 0.812392
vt 0.476493 0.812392
vn 0.0000 -1.0000 -0.0000
vn 0.0000 1.0000 0.0000
vn 1.0000 -0.0000 0.0000
vn -0.0000 -0.0000 1.0000
vn -1.0000 -0.0000 -0.0000
vn 0.0000 0.0000 -1.0000
vn 0.0000 -0.5568 0.8306
vn 0.0000 -0.6593 0.7518
vn 0.5316 -0.6593 0.5316
vn 0.5873 -0.5568 0.5873
vn 0.2492 -0.9359 0.2492
vn 0.3524 -0.9359 0.0000
vn 0.7518 -0.6593 0.0000
vn 0.2492 -0.9359 -0.2492
vn 0.5316 -0.6593 -0.5316
vn -0.2492 -0.9359 -0.2492
vn -0.3524 -0.9359 0.0000
vn -0.6896 -0.2209 -0.6896
vn -0.5316 0.6593 -0.5316
vn 0.0000 0.6593 -0.7518
vn 0.0000 -0.2209 -0.9753
vn -0.2492 0.9359 -0.2492
vn 0.0000 0.9359 -0.3524
vn 0.0000 -0.9359 0.3524
vn 0.0000 -0.9359 -0.3524
vn 0.0000 -0.6593 -0.7518
vn -0.5316 -0.6593 -0.5316
vn -0.6896 -0.2209 0.6896
vn -0.5316 0.6593 0.5316
vn -0.7518 0.6593 0.0000
vn -0.9753 -0.2209 0.0000
vn 0.0000 -0.2209 0.9753
vn 0.0000 0.6593 0.7518
vn 0.8306 -0.5568 0.0000
vn 0.5873 -0.5568 -0.5873
vn -0.5873 -0.5568 -0.5873
vn -0.7518 -0.6593 0.0000
vn -0.8306 -0.5568 0.0000
vn 0.0000 0.9359 0.3524
vn -0.2492 0.9359 0.2492
vn 0.6896 -0.2209 0.6896
vn 0.5316 0.6593 0.5316
vn -0.3524 0.9359 0.0000
vn 0.9753 -0.2209 0.0000
vn 0.7518 0.6593 0.0000
vn 0.2492 0.9359 0.2492
vn -0.2492 -0.9359 0.2492
vn -0.5316 -0.6593 0.5316
vn 0.3524 0.9359 0.0000
vn 0.5316 0.6593 -0.5316
vn 0.2492 0.9359 -0.2492
vn 0.6896 -0.2209 -0.6896
vn -0.5873 -0.5568 0.5873
vn 0.0000 -0.5568 -0.8306
vn 0.0000 0.2209 0.9753
vn 0.6896 0.2209 0.6896
vn 0.9753 0.2209 0.0000
vn 0.6896 0.2209 -0.6896
vn -0.6896 0.2209 -0.6896
vn -0.9753 0.2209 0.0000
vn -0.6896 0.2209 0.6896
vn 0.0000 0.2209 -0.9753
vn 0.5773 -0.5773 0.5773
vn 0.6182 0.3546 0.7014
vn -0.6182 0.3546 0.7014
vn -0.5773 -0.5773 0.5773
vn 0.5511 0.7447 -0.3764
vn -0.5511 0.7447 -0.3764
usemtl Material
s off
f 1/1/1 2/2/1 3/3/1 4/4/1
f 5/5/2 8/6/2 7/7/2 6/8/2
f 1/9/3 5/10/3 6/11/3 2/12/3
f 2/13/4 6/14/4 7/15/4 3/16/4
f 3/17/5 7/18/5 8/19/5 4/20/5
f 5/21/6 1/22/6 4/23/6 8/24/6
f 109/25/5 110/26/5 112/27/5 111/28/5
f 111/29/6 112/30/6 116/31/6 115/32/6
f 115/33/3 116/34/3 114/35/3 113/36/3
f 111/37/1 115/38/1 113/39/1 109/40/1
f 117/41/5 118/42/5 120/43/5 119/44/5
f 119/45/6 120/46/6 124/47/6 123/48/6
f 123/49/3 124/50/3 122/51/3 121/52/3
f 121/53/4 122/54/4 118/55/4 117/56/4
f 119/57/1 123/58/1 121/59/1 117/60/1
f 124/61/2 120/62/2 118/63/2 122/64/2
f 125/65/5 126/66/5 128/67/5 127/68/5
f 127/69/6 128/70/6 132/71/6 131/72/6
f 131/73/3 132/74/3 130/75/3 129/76/3
f 129/77/4 130/78/4 126/79/4 125/80/4
f 127/81/1 131/82/1 129/83/1 125/84/1
f 132/85/2 128/86/2 126/87/2 130/88/2
f 133/89/5 134/90/5 136/91/5 135/92/5
f 135/93/6 136/94/6 140/95/6 139/96/6
f 139/97/3 140/98/3 138/99/3 137/100/3
f 137/101/4 138/102/4 134/103/4 133/104/4
f 135/105/1 139/106/1 137/107/1 133/108/1
f 140/109/2 136/110/2 134/111/2 138/112/2
f 141/113/5 142/114/5 144/115/5 143/116/5
f 143/117/6 144/118/6 148/119/6 147/120/6
f 147/121/3 148/122/3 146/123/3 145/124/3
f 145/125/4 146/126/4 142/127/4 141/128/4
f 143/129/1 147/130/1 145/131/1 141/132/1
f 148/133/2 144/134/2 142/135/2 146/136/2
s 1
f 42/137/7 37/138/8 45/139/9 44/140/10
f 45/141/9 51/142/11 38/143/12 46/144/13
f 46/145/13 38/146/12 30/147/14 18/148/15
f 57/149/16 58/150/1 9/151/17
f 31/152/18 27/153/19 11/154/20 50/155/21
f 22/156/22 36/157/2 16/158/23
f 37/159/8 32/160/24 51/142/11 45/141/9
f 43/161/25 58/150/1 57/149/16
f 49/162/26 43/161/25 57/149/16 55/163/27
f 13/164/28 12/165/29 53/166/30 52/167/31
f 19/168/32 20/169/33 12/170/29 13/171/28
f 47/172/34 46/173/13 18/174/15 17/175/35
f 54/176/36 55/177/27 14/178/37 15/179/38
f 51/142/11 58/150/1 38/143/12
f 20/180/33 21/181/39 10/182/40 12/183/29
f 25/184/41 24/185/42 20/186/33 19/187/32
f 21/181/39 36/157/2 10/182/40
f 56/188/43 36/157/2 22/156/22
f 33/189/44 34/190/45 24/191/42 25/192/41
f 55/163/27 57/149/16 9/151/17 14/193/37
f 24/194/42 23/195/46 21/181/39 20/180/33
f 23/195/46 36/157/2 21/181/39
f 14/193/37 9/151/17 29/196/47 28/197/48
f 30/198/14 58/150/1 43/161/25
f 34/199/45 35/200/49 23/201/46 24/202/42
f 40/203/50 39/204/51 35/205/49 34/206/45
f 29/196/47 58/150/1 32/160/24
f 38/143/12 58/150/1 30/198/14
f 41/207/52 40/208/50 34/190/45 33/189/44
f 52/167/31 53/166/30 27/209/19 31/210/18
f 32/160/24 58/150/1 51/142/11
f 26/211/53 28/212/48 37/138/8 42/137/7
f 9/151/17 58/150/1 29/196/47
f 39/204/51 36/157/2 35/205/49
f 10/182/40 36/157/2 56/188/43
f 28/197/48 29/196/47 32/160/24 37/159/8
f 48/213/54 49/214/26 55/215/27 54/216/36
f 11/217/20 16/158/23 39/204/51 40/203/50
f 16/158/23 36/157/2 39/204/51
f 12/183/29 10/182/40 56/188/43 53/218/30
f 35/205/49 36/157/2 23/195/46
f 50/155/21 11/154/20 40/219/50 41/220/52
f 53/218/30 56/188/43 22/156/22 27/221/19
f 17/222/35 18/223/15 49/224/26 48/225/54
f 18/226/15 30/198/14 43/161/25 49/162/26
f 15/179/38 14/178/37 28/227/48 26/228/53
f 44/229/10 45/230/9 46/173/13 47/172/34
f 27/221/19 22/156/22 16/158/23 11/217/20
f 47/231/34 44/232/10 42/233/7 26/234/53 15/235/38 54/236/36 48/237/54 17/238/35
f 31/239/18 50/240/21 41/241/52 33/242/44 25/243/41 19/244/32 13/245/28 52/246/31
f 25/247/41 19/248/32 42/249/7 44/250/10
f 33/251/44 25/252/41 44/253/10 47/254/34
f 47/255/34 17/256/35 41/257/52 33/258/44
f 17/259/35 48/260/54 50/261/21 41/262/52
f 48/263/54 54/264/36 31/265/18 50/266/21
f 54/267/36 15/268/38 52/269/31 31/270/18
f 15/268/38 26/271/53 13/272/28 52/269/31
f 26/273/53 42/274/7 19/275/32 13/276/28
f 92/277/55 87/278/8 95/279/9 94/280/56
f 95/281/9 101/282/11 88/283/12 96/284/13
f 96/284/13 88/283/12 80/285/14 68/286/15
f 107/287/16 108/288/1 59/289/17
f 81/290/18 77/291/19 61/292/20 100/293/21
f 72/294/22 86/295/2 66/296/23
f 87/297/8 82/298/24 101/282/11 95/281/9
f 93/299/25 108/288/1 107/287/16
f 99/300/26 93/299/25 107/287/16 105/301/27
f 63/302/28 62/303/29 103/304/30 102/305/31
f 69/306/32 70/307/33 62/308/29 63/309/28
f 97/310/57 96/311/13 68/312/15 67/313/58
f 104/314/59 105/315/27 64/316/37 65/317/60
f 101/282/11 108/288/1 88/283/12
f 70/318/33 71/319/39 60/320/40 62/321/29
f 75/322/41 74/323/42 70/307/33 69/306/32
f 71/319/39 86/295/2 60/320/40
f 106/324/43 86/295/2 72/294/22
f 83/325/44 84/326/45 74/327/42 75/328/41
f 105/301/27 107/287/16 59/289/17 64/329/37
f 74/330/42 73/331/46 71/319/39 70/318/33
f 73/331/46 86/295/2 71/319/39
f 64/332/37 59/333/17 79/334/47 78/335/48
f 80/285/14 108/288/1 93/299/25
f 84/336/45 85/337/49 73/331/46 74/330/42
f 90/338/50 89/339/51 85/337/49 84/336/45
f 79/340/47 108/288/1 82/298/24
f 88/283/12 108/288/1 80/285/14
f 91/341/52 90/342/50 84/326/45 83/325/44
f 102/305/31 103/304/30 77/343/19 81/344/18
f 82/298/24 108/288/1 101/282/11
f 76/345/61 78/346/48 87/347/8 92/348/55
f 59/289/17 108/288/1 79/340/47
f 89/339/51 86/295/2 85/337/49
f 60/320/40 86/295/2 106/324/43
f 78/349/48 79/340/47 82/298/24 87/297/8
f 98/350/62 99/351/26 105/352/27 104/353/59
f 61/354/20 66/296/23 89/339/51 90/338/50
f 66/296/23 86/295/2 89/339/51
f 62/321/29 60/320/40 106/324/43 103/355/30
f 85/337/49 86/295/2 73/331/46
f 100/356/21 61/357/20 90/358/50 91/359/52
f 103/360/30 106/361/43 72/362/22 77/363/19
f 67/364/58 68/365/15 99/351/26 98/350/62
f 68/286/15 80/285/14 93/299/25 99/300/26
f 65/317/60 64/316/37 78/366/48 76/367/61
f 94/368/56 95/369/9 96/311/13 97/310/57
f 77/370/19 72/294/22 66/296/23 61/354/20
f 97/371/57 67/372/58 98/373/62 104/374/59 65/375/60 76/376/61 92/377/55 94/378/56
f 81/379/18 100/380/21 91/381/52 83/382/44 75/383/41 69/384/32 63/385/28 102/386/31
f 75/387/41 69/388/32 92/389/55 94/390/56
f 83/391/44 75/392/41 94/393/56 97/394/57
f 97/395/57 67/396/58 91/397/52 83/398/44
f 67/399/58 98/400/62 100/401/21 91/402/52
f 98/400/62 104/403/59 81/404/18 100/401/21
f 104/405/59 65/406/60 102/407/31 81/408/18
f 65/406/60 76/409/61 63/410/28 102/407/31
f 76/411/61 92/412/55 69/413/32 63/414/28
f 113/415/63 114/416/64 110/417/65 109/418/66
f 116/419/67 112/420/68 110/421/65 114/422/64
